<svg xmlns="http://www.w3.org/2000/svg" width="128" height="128" viewBox="0 0 128 128" fill="none">
  <defs>
    <linearGradient id="g1" x1="0" y1="0" x2="128" y2="128" gradientUnits="userSpaceOnUse">
      <stop stop-color="#00e5ff"/>
      <stop offset="0.5" stop-color="#ff2fd2"/>
      <stop offset="1" stop-color="#00ffaa"/>
    </linearGradient>
  </defs>
  <rect x="4" y="4" width="120" height="120" rx="28" fill="url(#g1)" fill-opacity="0.15" stroke="url(#g1)" stroke-width="4" />
  <path d="M46 40h20c4 0 8 1 11 3 7 4 11 12 11 21s-4 17-11 21c-3 2-7 3-11 3H46V40Zm20 40c7 0 12-6 12-16s-5-16-12-16h-8v32h8Z" fill="#00e5ff"/>
  <path d="M32 32l8 8M96 96l-8-8M96 32l-8 8M32 96l8-8" stroke="#ff2fd2" stroke-width="4" stroke-linecap="round"/>
  <circle cx="64" cy="64" r="54" stroke="#00ffaa" stroke-width="2" stroke-dasharray="6 10" stroke-linecap="round"/>
</svg>